inDegrees=no
num_controls=7
num_derivatives=13
num_iterations=176
num_multipliers=7
num_parameters=0
num_slacks=7
num_states=26
objective=5.225331
objective_accelerations=0.465398
objective_balance=0.078311
objective_effort=0.416596
objective_height=4.203217
objective_ligament=0.061810
solver_duration=2062.451500
status=Solve_Succeeded
success=true
DataType=double
version=3
OpenSimVersion=4.4-2022-07-23-0e9fedc
endheader
time	/jointset/ground_pelvis/pelvis_tilt/value	/jointset/ground_pelvis/pelvis_tx/value	/jointset/ground_pelvis/pelvis_ty/value	/jointset/hip_l/hip_flexion_l/value	/jointset/hip_l/hip_adduction_l/value	/jointset/hip_l/hip_rotation_l/value	/jointset/back/lumbar_extension/value	/jointset/patellofemoral_l/patellar_flexion_l/value	/jointset/knee_l/knee_flexion_l/value	/jointset/knee_l/knee_adduction_l/value	/jointset/knee_l/knee_rotation_l/value	/jointset/ankle_l/ankle_angle_l/value	/jointset/subtalar_l/subtalar_angle_l/value	/jointset/ground_pelvis/pelvis_tilt/speed	/jointset/ground_pelvis/pelvis_tx/speed	/jointset/ground_pelvis/pelvis_ty/speed	/jointset/hip_l/hip_flexion_l/speed	/jointset/hip_l/hip_adduction_l/speed	/jointset/hip_l/hip_rotation_l/speed	/jointset/back/lumbar_extension/speed	/jointset/patellofemoral_l/patellar_flexion_l/speed	/jointset/knee_l/knee_flexion_l/speed	/jointset/knee_l/knee_adduction_l/speed	/jointset/knee_l/knee_rotation_l/speed	/jointset/ankle_l/ankle_angle_l/speed	/jointset/subtalar_l/subtalar_angle_l/speed	/forceset/tau_hip_flexion_l	/forceset/tau_hip_adduction_l	/forceset/tau_hip_rotation_l	/forceset/tau_knee_flexion_l	/forceset/tau_ankle_angle_l	/forceset/tau_subtalar_angle_l	/forceset/tau_lumbar_extension	lambda_cid13_p0	lambda_cid13_p1	lambda_cid13_p2	lambda_cid13_p3	lambda_cid13_p4	lambda_cid13_p5	lambda_cid14_p0	/jointset/ground_pelvis/pelvis_tilt/accel	/jointset/ground_pelvis/pelvis_tx/accel	/jointset/ground_pelvis/pelvis_ty/accel	/jointset/hip_l/hip_flexion_l/accel	/jointset/hip_l/hip_adduction_l/accel	/jointset/hip_l/hip_rotation_l/accel	/jointset/back/lumbar_extension/accel	/jointset/patellofemoral_l/patellar_flexion_l/accel	/jointset/knee_l/knee_flexion_l/accel	/jointset/knee_l/knee_adduction_l/accel	/jointset/knee_l/knee_rotation_l/accel	/jointset/ankle_l/ankle_angle_l/accel	/jointset/subtalar_l/subtalar_angle_l/accel	gamma_cid13_p0	gamma_cid13_p1	gamma_cid13_p2	gamma_cid13_p3	gamma_cid13_p4	gamma_cid13_p5	gamma_cid14_p0
1	-0.6663826192500784	-0.137582411302807	0.648910831648136	1.802063507305854	-0.3100236027481206	0.05359480765857336	-0.4363317361199041	0.9796918022200982	0.9796918022200418	-0.1745321731832035	0.1745325876449062	0.02312310255707295	-0.0555099384038675	-0.01032779972252593	0.0009543252286844561	-0.0028990327215274	0.01596248750902627	0.0004635947310097692	0.003468006164204107	-3.527062258176496e-05	0.009037413507181121	0.009037413507182497	7.103823937320541e-06	-9.601704268540694e-06	0.004164386282550724	0.001184673177356354	-0.4365310121189498	0.016847642952607	-0.01940093526571434	-0.2045233234776631	0.1511192909077346	0.04699751031515802	0.3501397550309351	3.208480764325612	-21.51523037235233	3.647282632686329	4.616101288057211	-712.9772368125349	-50.21620103852062	-10.45548752199396	2.097610297694669	0.3725918659753851	1.3743155039376	-5.753169592013567	-0.1442371732761195	-1.380861591291957	-0.01592919171508737	-3.849792487219435	-3.849792487219515	-0.02630800625233551	0.008624376832363613	-0.4283568184376146	-0.1860213745893369	5.951933021019149e-10	2.95219727525168e-09	-3.640751053626481e-09	2.39438144179449e-10	7.353073442658504e-10	-4.212879679479524e-11	9.305640118472052e-10
1.01	-0.6663817965451558	-0.1375543057196888	0.6489504235750048	1.801936545061516	-0.3100255376688311	0.05356016270176616	-0.4363320308131597	0.9795899189806883	0.9795899189806232	-0.1745321007579888	0.1745324731935957	0.02314346429766501	-0.05550671405198292	0.0104886014058158	0.004667241631114348	0.0108139338422321	-0.04134421540755078	-0.0008504904733352629	-0.01039565905164593	-2.108893593953629e-05	-0.02940736741185809	-0.02940736741185734	6.473630230495601e-06	-1.108681080603377e-05	-9.242454494676631e-05	-0.0005398567862056554	-0.4363725843327212	0.01685832241231137	-0.01940226717995532	-0.2044961616822261	0.1511154172041014	0.04700466028987622	0.3500353008195143	3.21843308075603	-21.52145716126728	3.64985042236256	4.583934632597495	-712.816322524047	-50.2320397846625	-10.46185449447702	2.073093843518294	0.3707090205038527	1.369264097822903	-5.717812831154331	-0.1249814303368637	-1.388920375676764	0.01047872008001064	-3.840816314393231	-3.840816314393194	0.01292239145296835	-0.004206996313358501	-0.4244010651377606	-0.1656772709571613	-1.307928271717309e-09	-4.417378707225691e-09	9.009002219819501e-09	-2.067938660478273e-10	-2.451791144073759e-09	7.637435492521765e-09	-2.382808999610853e-09
1.02	-0.6661729220643354	-0.1374890574739207	0.6491270405405566	1.801236837350066	-0.3100406108888504	0.05338692081500832	-0.4363321063157559	0.9791037888480596	0.979103788847992	-0.1745320620512441	0.1745324094828525	0.02312124635993501	-0.05552073669247753	0.03128255545873806	0.008382857758647855	0.02450597501507048	-0.09858660591110875	-0.002164065130605452	-0.02425137982530806	8.567599750223112e-06	-0.06781196513678564	-0.06781196513678418	3.601318363457089e-07	5.464059944652023e-07	-0.004351549381724559	-0.002264725298469996	-0.4362141565465222	0.01686900187200815	-0.01940359909421993	-0.2044689998867891	0.1511115435004685	0.04701181026458679	0.3499308466080613	3.222020091432937	-21.52764321958589	3.653638350107798	4.562776321663827	-712.7447648254334	-50.23370063165608	-10.49220047238349	2.093120882610795	0.3731318109960956	1.370130425753368	-5.740307109409746	-0.1441350638611613	-1.379272702854391	-0.01283422190538445	-3.841755848397097	-3.841755848396911	-0.02740466718980518	0.01124804149998172	-0.4288196202936985	-0.1860890843298184	-3.387870065324174e-09	-1.112059266424549e-08	2.122579849526977e-08	1.682804371736723e-10	-6.105835374417031e-09	1.480638859500333e-08	-5.4390023258819e-09
1.03	-0.6657561772955928	-0.1373866249508761	0.6494404438422601	1.799965033531825	-0.3100687670070028	0.05307521026192508	-0.4363318926941545	0.9782338336318633	0.9782338336318512	-0.1745321003445429	0.1745324824714579	0.02305640852820975	-0.05555196136220619	0.05206656736706487	0.01210550151070224	0.0381682549197077	-0.155762419189668	-0.003461457058800126	-0.03808498061136038	2.865595682863973e-05	-0.1061704413754163	-0.1061704413754127	-6.448748375106958e-06	1.138665303210433e-05	-0.008618004329899759	-0.003974816494451112	-0.435717287820133	0.01691185702077888	-0.019415506637584	-0.2044530660128329	0.1511881246845203	0.04704513456371565	0.349619418447828	3.267083649435096	-21.5552889413975	3.664079868476364	4.501249823027065	-712.4307262621332	-50.28614647215228	-10.5465378513296	2.071065720187243	0.3721089690422416	1.363310236820374	-5.704458857426796	-0.1216883394033925	-1.384548928174819	0.008605249705267923	-3.831596285501828	-3.831596285501603	0.01291328849956067	-0.00440603576883317	-0.425856270590622	-0.1626614326545356	-5.469616146888056e-09	-1.781700700876061e-08	3.343817684216905e-08	5.517354170630213e-10	-9.764644357229729e-09	2.197013137925188e-08	-8.492571369651036e-09
1.04	-0.6651315875327208	-0.1372469103279645	0.6498902766358102	1.79812182349673	-0.3101097264608578	0.0526253346686426	-0.4363316432119694	0.9769805530985	0.9769805530985415	-0.1745321602692588	0.1745325822521235	0.0229488465793004	-0.05560012540297916	0.07285155428513912	0.01583927773204493	0.05179187338440647	-0.2128678492821362	-0.0047247322711867	-0.05188438786518075	1.57397215393487e-05	-0.1444770285702811	-0.1444770285702763	-3.966151131562289e-06	5.904817090551317e-06	-0.01289637281852369	-0.005652599507324175	-0.435220419093729	0.01695471216955205	-0.01942741418095052	-0.2044371321388803	0.1512647058685691	0.04707845886284653	0.3493079902876112	3.305760956771428	-21.58288799830513	3.675737987500411	4.450830317417985	-712.2063709361402	-50.32472518882589	-10.62481410436346	2.093315884560291	0.3753583048537575	1.362398137765676	-5.72623047219153	-0.1373117206995657	-1.372433996408023	-0.01943514037915172	-3.831378039643909	-3.831378039643904	-0.02554637169882943	0.007983624904183924	-0.431202328383454	-0.1796274477082347	-7.239146488292186e-09	-2.49406379101498e-08	4.525910768620892e-08	1.961916832841905e-11	-1.276787970588443e-08	2.900851345297031e-08	-1.16267912171596e-08
1.05	-0.6642991665458066	-0.1370697933753391	0.6504760810809713	1.795708084054069	-0.3101631469904325	0.0520376775371944	-0.4363316867702516	0.9753446076951685	0.9753446076951646	-0.1745321866413127	0.1745325912845125	0.02279843079781324	-0.05566490786543956	0.09362961492079624	0.0195867394246826	0.06535543699163694	-0.2698501227249853	-0.005952278437329574	-0.06563827439835075	-2.897392856814202e-05	-0.1826892613077002	-0.1826892613076956	-5.561742697731924e-07	-2.991154253475279e-06	-0.01718953046607517	-0.007297340176203033	-0.4343200436384364	0.01701050204149968	-0.01944572767815423	-0.2043857749708926	0.1513785743971047	0.04714227124271007	0.3487402458429749	3.379181408366386	-21.63261335582677	3.694124160444427	4.360671387491287	-711.6305793532428	-50.41341108420176	-10.7270303372555	2.069595171276304	0.3748339823253536	1.351295493512727	-5.679740400433015	-0.114415697452619	-1.375564647677928	0.002332138366146581	-3.812724288114091	-3.812724288114167	0.01339183083682423	-0.00517440270073692	-0.4287840582443599	-0.1559161029783716	-8.998920087816327e-09	-3.207761932894131e-08	5.706780579578442e-08	-5.411086813006764e-10	-1.57506283784717e-08	3.604297800448467e-08	-1.476353140228501e-08
